<?xml version="1.0" encoding="UTF-8"?>
<svg id="Layer_2" data-name="Layer 2" xmlns="http://www.w3.org/2000/svg" viewBox="0 0 282.02 300.48">
  <defs>
    <style>
      .cls-1 {
        fill: #c184bd;
      }

      .cls-2 {
        fill: #ffbc9b;
      }

      .cls-3 {
        fill: #f8b797;
      }

      .cls-4 {
        fill: #f8cbb5;
      }
    </style>
  </defs>
  <g id="OBJECTS">
    <g>
      <path class="cls-4" d="M262.83,300.36c22.76-48.37,23.72-148.9,10.98-156.37-12.75-7.47-18.33,18.75-18.72,31.49,2.53-37.6-26.25-101.39-33.57-105.16-7.33-3.77-15.36,22.29-12.7,35.12-18.2-27.99-56.52-77.93-62.34-78.22-5.82-.28-1.74,29.01,1.47,43.12C130.66,42.29,87.99-1.84,79.54.06c-8.44,1.9.89,22.14,8.92,29.25-18.6-4.4-37.2-8.81-55.79-13.21C20.9,13.31,5.28,12.21,0,23.08c13.7,13.68,29.03,25.71,45.57,35.77-10.51-4.07-22.34-4.64-33.19-1.59,19.03,29.07,46.01,52.89,77.22,68.18-10.32-1.77-21.32.84-29.75,7.06,21.53,23.95,49.59,41.95,80.3,51.64-7.2-.56-14.27,8.84-12.41,16.76,2.16,9.2,10.82,15.15,18.81,20.19,25.71,16.23,51.41,32.46,77.12,48.69,13.63,8.6,27.99,18.23,37.64,30.71.5-.13,1.02-.19,1.53-.12Z"/>
      <path class="cls-3" d="M19.34,30.95c5.75,2.61,11.44,5.33,17.22,7.89s11.56,5.13,17.35,7.67c11.15,4.88,22.37,9.64,33.3,14.99s20.89,11.12,30.48,18.09c9.28,6.75,18.05,14.22,26.56,21.92,15.86,14.35,30.68,29.93,43.66,46.94,12.98,17.01,24.08,35.45,32.48,55.15,9.01,21.13,15.3,43.36,25.5,63.98,1.27,2.57,2.61,5.1,4.06,7.57.74,1.27,2.65.14,1.96-1.15-5.49-10.32-10.17-20.96-14.34-31.88-4.13-10.81-7.93-21.75-12.22-32.5-8.06-20.2-18.54-39.18-31.33-56.78-12.65-17.41-27.2-33.39-42.9-48.09-16.79-15.72-34.66-30.46-55.05-41.27-10.6-5.61-21.6-10.41-32.58-15.21-11.59-5.07-23.15-10.26-34.84-15.1-2.91-1.21-5.86-2.32-8.76-3.54-.74-.31-1.29.97-.55,1.31h0Z"/>
      <path class="cls-1" d="M42.87,72.14s.03-.05,0-.05-.03.05,0,.05h0Z"/>
      <path class="cls-2" d="M43.16,72.59c14.64,2.89,29.14,6.47,43.44,10.73,6.14,1.83,12.51,3.94,16.94,8.57-4.38,5.59-14.15-.75-20.29,2.81,3.27,2.86,7.39,4.5,11.41,6.15,19.94,8.16,39.33,17.66,58,28.41-14.13,4.29-29.66,1.25-42.95-5.2-13.28-6.44-24.72-16.06-36.01-25.57-9.54-8.05-19.09-16.09-28.63-24.14"/>
      <path class="cls-2" d="M117.64,164.29c23.08,1.08,47.24,2.47,67.05,14.37,2.69,1.61,5.38,3.54,6.71,6.38,1.33,2.84.76,6.79-1.98,8.3-2.29,1.26-5.12.48-7.72.75-2.6.27-5.44,2.97-3.97,5.14.48.71,1.31,1.11,2.09,1.47,6.85,3.15,13.71,6.29,20.56,9.44,3.05,1.4,6.61,3.61,6.37,6.95-.13,1.78-1.4,3.3-2.89,4.29-4.46,2.96-10.43,1.92-15.47.11-5.04-1.81-10.09-4.31-15.43-3.95,9.26,5.86,19.74,9.46,29.53,14.39,9.79,4.92,19.29,11.61,24.17,21.43-28.45-11.96-58.01-24.7-77.97-48.25-.35-.41-.71-.86-.74-1.4-.05-.75.54-1.37,1.08-1.89,3.2-3.04,6.39-6.07,9.59-9.11,1.11-1.05,2.32-2.4,2-3.89-.27-1.28-1.54-2.05-2.69-2.68-11.57-6.23-23.14-12.47-34.71-18.7"/>
      <path class="cls-2" d="M190.56,133.03c-4.92-13.2-9.83-26.39-14.75-39.59-.89-2.4-1.8-4.86-1.84-7.42,13.44,7.77,24.63,19.39,31.89,33.12,2.63,4.98,6.02,11.06,11.65,10.93,5.57-.14,8.82-6.6,9-12.17s-1.4-11.28.13-16.64c5.61,5.79,9.21,13.48,10.09,21.5.59,5.39-.03,10.83-.64,16.22-1.21,10.58-2.41,21.15-3.62,31.73-.67,5.83-1.34,11.69-2.8,17.38-2.89-14.4-7.96-28.36-14.97-41.27-1.44,3.68-2.25,7.61-2.38,11.56-9.24-9-13.36-23.46-25.02-28.96"/>
      <path class="cls-2" d="M249.13,240.43c7.26-10.77,1.45-26.09,6.93-37.86,2.55-5.47,7.41-9.85,8.77-15.73,1.16-5.03-.35-10.83,2.56-15.1,3.55,7.55,1.85,16.36,1.36,24.69-.5,8.64.39,17.4-1.3,25.89-1.68,8.49-6.71,17.06-14.94,19.72"/>
      <path class="cls-1" d="M100.98,38.68s.03-.05,0-.05-.03.05,0,.05h0Z"/>
      <path class="cls-2" d="M105.25,61.08c-13.9-9.05-27.79-18.1-41.69-27.15,10.87,4.3,21.74,8.59,32.61,12.89,1.63.64,3.52,1.27,5.05.42,2.23-1.25,1.91-4.63.66-6.87-1.24-2.24-3.15-4.33-3.16-6.89,18.98,12.49,34.09,30.79,42.78,51.79-11.53-10.8-25.16-19.05-38.67-27.22"/>
      <path class="cls-3" d="M158.9,60.21c1.41,4.77,3.01,9.39,3.91,14.31s1.23,10.17,1.43,15.28c.42,10.45.82,20.91,1.12,31.37.05,1.66,2.66,1.66,2.58,0-.4-8.34-.67-16.68-1.02-25.02-.33-8.02-.45-16.21-2.27-24.07-.98-4.23-2.29-8.62-4.5-12.38-.39-.66-1.46-.23-1.24.52h0Z"/>
      <path class="cls-3" d="M191.27,150.7c-11.78.14-23.49.05-35.2-1.32s-22.98-3.72-34.14-6.99c-3.12-.91-6.21-1.89-9.29-2.94s-6.34-2.45-9.7-3.08c-1.03-.19-1.64,1.12-.72,1.71,2.52,1.64,5.3,2.6,8.12,3.6s5.56,1.9,8.37,2.76c5.69,1.74,11.47,3.21,17.3,4.43,11.54,2.43,23.3,3.88,35.08,4.33,6.72.26,13.48.23,20.17-.46,1.28-.13,1.34-2.05,0-2.04h0Z"/>
      <path class="cls-3" d="M245.81,173.73c-.44,9.29-3.04,18.1-5.93,26.88-2.82,8.55-5.72,17.18-6.32,26.23-.34,5.04.06,10.04,2.11,14.69.52,1.18,2.19.29,1.97-.83-.86-4.33-1.38-8.75-1.19-13.17s1-8.78,2.07-13.06c2.17-8.67,5.54-17.01,7.49-25.74,1.1-4.92,1.77-9.95,1.32-15-.09-.97-1.48-.99-1.52,0h0Z"/>
    </g>
  </g>
</svg>