<?xml version="1.0" encoding="UTF-8"?>
<svg xmlns="http://www.w3.org/2000/svg" xmlns:xlink="http://www.w3.org/1999/xlink" viewBox="0 0 215.04 300.87">
  <defs>
    <style>
      .cls-1 {
        fill: #7ba360;
      }

      .cls-2 {
        fill: #96bc7b;
      }

      .cls-3 {
        fill: #fff;
      }

      .cls-4 {
        fill: #232323;
      }

      .cls-5 {
        fill: #faee92;
      }

      .cls-6 {
        fill: none;
      }

      .cls-7 {
        clip-path: url(#clippath-1);
      }

      .cls-8 {
        isolation: isolate;
      }

      .cls-9 {
        fill: #a6386b;
      }

      .cls-10 {
        mix-blend-mode: multiply;
        opacity: .35;
      }

      .cls-11 {
        fill: #678354;
      }

      .cls-12 {
        fill: #789f5e;
      }

      .cls-13 {
        clip-path: url(#clippath);
      }

      .cls-14 {
        fill: #e0729a;
      }
    </style>
    <clipPath id="clippath">
      <path class="cls-6" d="M177.55,142.83c.58,2.73.51,5.59-.2,8.29-.49,1.87-1.29,3.65-2.08,5.42-1.46,3.25-2.91,6.51-4.37,9.76-1.01,2.26-2.05,4.63-1.93,7.11.08,1.67.68,3.29,1.53,4.73,2.62,4.44,7.64,7.28,12.79,7.58,5.15.3,10.32-1.83,14.03-5.42,3.04-2.95,5.35-6.96,9.3-8.48.73-.28,1.52-.47,2.29-.33,0,0,.48-4.73-4.62-6.09,0,0,11.34-1.32,7.95-8.54,0,0,5.28-4.25,1.38-8.09-3.91-3.84-9.51-5.21-9.36-4.86.15.35.77-5.21-.26-7.45-1.03-2.24-5.82,1.11-9.03-2.13-3.21-3.24-4.82.82-6.03,3.4,0,0-4.61-2.75-9.13-1.73-4.52,1.02-2.24,6.85-2.24,6.85Z"/>
    </clipPath>
    <clipPath id="clippath-1">
      <path class="cls-6" d="M64.9,22.19c-2.24,1.13-4.22,2.79-5.71,4.81-1.04,1.4-1.84,2.96-2.63,4.51-1.46,2.85-2.93,5.71-4.39,8.56-1.02,1.99-2.1,4.05-3.9,5.36-1.22.89-2.69,1.37-4.19,1.59-4.6.66-9.41-1.26-12.52-4.71-3.11-3.45-4.53-8.28-4.09-12.91.36-3.8,1.88-7.67.72-11.3-.21-.67-.53-1.33-1.05-1.79,0,0,3.06-3,6.88-.18,0,0-5.46-8.71,1.52-10.39,0,0,0-6.1,4.9-5.52,4.9.58,9.01,3.75,8.69,3.84-.33.09,3.23-3.47,5.38-4.01,2.15-.54,2.49,4.71,6.58,5.14,4.09.43,2.14,3.85,1.01,6.14,0,0,4.53,1.68,6.36,5.44,1.83,3.75-3.55,5.43-3.55,5.43Z"/>
    </clipPath>
  </defs>
  <g class="cls-8">
    <g id="Layer_2" data-name="Layer 2">
      <g id="OBJECTS">
        <g>
          <g>
            <g>
              <path class="cls-3" d="M120.1,126.75c-8.38-7.32-18.94-12.13-29.96-13.64,4.99-3.78,12.16-3.8,17.85-1.16,5.68,2.64,10.03,7.54,13.31,12.88-2.31-7.58-3.01-15.77-1.09-23.45,1.92-7.69,6.63-14.81,13.46-18.83,2.88,10.24.46,21.16-2.37,31.41-1.12,4.07-2.71,8.59-6.56,10.32,10.47-6.56,25.05-5.74,34.72,1.96-6.98-1.85-14.4-2.06-21.47-.61-6.19,1.27-13.1,3.67-18.4.25"/>
              <path class="cls-3" d="M122.36,124.08c-.46-7.08-1.05-14.28-3.68-20.87-2.64-6.59-7.66-12.58-14.45-14.66-2.45,13.34,4.34,27.88,16.13,34.58"/>
              <path class="cls-3" d="M124.94,122.94c1.73-3.96,5.15-6.91,8.59-9.52,6.73-5.1,14.62-9.63,23.04-9.1-.94,2.74-2.86,5.04-4.92,7.07-7.02,6.9-16.31,11.43-26.07,12.71"/>
            </g>
            <path class="cls-3" d="M121.68,120.13c-5.04,10.02-6.64,21.55-7.48,32.61s-.58,23.16.05,34.72c.66,12.07,1.72,24.11,1.92,36.19.1,5.99-.1,11.98-.15,17.98-.05,6.09.14,12.19.5,18.27.8,13.53,2.09,27.17,4.32,40.55.11.65,1.21.51,1.16-.16-.9-12.01-2.64-23.94-3.51-35.95-.43-6-.72-12.02-.79-18.04s.16-11.82.17-17.72c.05-23.59-3.4-47.19-1.8-70.78.43-6.32,1.23-12.61,2.52-18.82s3.02-12.14,4.74-18.16c.27-.96-1.18-1.63-1.65-.7h0Z"/>
          </g>
          <g>
            <path class="cls-3" d="M62.15,57.93c-1.34,4.44-2.68,8.81-4.68,13-1.98,4.14-4.36,8.08-6.83,11.94-5.06,7.88-10.52,15.57-14.34,24.16-2.07,4.65-3.74,9.49-4.93,14.44-1.29,5.33-1.95,10.77-2.69,16.19-.58,4.26-.97,8.75-2.47,12.81-1.16,3.15-2.77,6.14-4.44,9.04-2.09,3.63-4.38,7.13-6.77,10.57-1.95,2.81-3.97,5.61-6.28,8.14-.52.57.27,1.35.85.85,2.21-1.93,4.05-4.26,5.84-6.57,2.33-3.01,4.44-6.2,6.42-9.46,1.85-3.05,3.61-6.18,5.06-9.45s2.23-6.74,2.8-10.38c.87-5.54,1.41-11.12,2.42-16.64.95-5.2,2.38-10.3,4.29-15.22,3.54-9.13,8.98-17.2,14.19-25.42,2.78-4.4,5.51-8.85,7.78-13.55,2.16-4.49,4.14-9.34,4.51-14.36.03-.43-.61-.48-.73-.1h0Z"/>
            <path class="cls-3" d="M40.56,73.82c-1.12,2.72-1.3,5.71-1.41,8.65,0,.17-.01.34-.02.51,0,.24,0,.51.16.67.15.15.38.17.59.17.16,0,.31,0,.47,0,2.9-.13,5.57-1.66,7.93-3.37,6.52-4.75,11.85-11.59,13.65-19.39-.02.34-.04.68-.07,1.02-.3,4.89-.59,9.82.19,14.66.92,5.7,3.37,11.13,6.99,15.62.43.54.88,1.06,1.34,1.56.01.02.03.04.05.06,0-.02.01-.04.02-.06.13-.38.26-.76.39-1.13,1.89-5.74,2.8-11.88,1.72-17.8-.63-3.52-2.03-6.94-4.1-9.84,0,0,0,0,0,0,2.72,2.04,5.81,3.58,9.08,4.49,6.25,1.73,13.1,1.13,18.95-1.63.21-.09.41-.19.61-.29-.14-.3-.29-.58-.45-.87-2.28-4.03-6.66-6.54-10.96-8.41-3.96-1.71-8.15-3.1-12.47-3.23-1.2-.03-2.41.06-3.61.25.01,0,.02,0,.03-.01h0c8.14-4.17,14.35-12.19,15.87-21.24.08-.45.1-.98-.02-1.42-.11-.38-.31-.7-.7-.83-.12-.04-.23-.05-.35-.05-.23,0-.47.05-.7.11-3.53.86-7.18,1.77-10.07,3.97-3.01,2.3-4.88,5.76-6.65,9.11-.95,1.79-1.91,3.62-2.75,5.48-.11-1.51-.42-3.01-.84-4.44-2.42-8.24-8.22-15.43-15.74-19.58-.61-.34-1.23-.66-1.87-.96,0,.17,0,.33.01.5.13,6.63.63,13.36,3.08,19.52,1.31,3.28,3.24,6.4,5.71,8.93-7.49-3.6-16.13-4.83-24.3-3.29,6.94,7.34,17.61,10.86,27.58,9.44-.71.32-1.43.64-2.14.96-3.04,1.37-6.1,2.75-8.83,4.67-2.72,1.91-5.14,4.42-6.4,7.51ZM62.59,59.64s.07-.02.1-.03c0,0,0,0,0,0,.03.02.06.02.09.03l-.02-.06h0s.03-.01.05-.02c.05.04.1.08.16.12.1.13.21.26.31.4,0,0,0,0-.01-.01-.22-.15-.45-.3-.68-.44h0Z"/>
          </g>
          <g>
            <path class="cls-12" d="M78.15,132.8c2.81-3.17,5.09-6.73,7.35-10.27,4.24-6.64,8.52-13.35,11.15-20.66,2.63-7.3,3.5-15.36.84-22.34-7.49,7.26-14.03,15.63-17.95,25.04-3.93,9.41-5.1,19.95-2.04,29.25"/>
            <path class="cls-11" d="M1.14,232.49c9.27-4.57,17.17-11.4,24.41-18.69s14.43-15.59,20.8-24.08c13.26-17.69,23.44-37.29,32.06-57.6,4.82-11.37,9.21-22.92,13.6-34.46.34-.9-1.11-1.29-1.45-.4-7.77,20.46-15.57,40.99-25.79,60.38-10.03,19.05-22.56,36.66-37.46,52.2-7.95,8.29-16.54,16.22-26.93,21.34-.87.43-.11,1.72.76,1.3h0Z"/>
            <g>
              <path class="cls-12" d="M116.39,145.76c.2-.21.39-.43.58-.65-4.46-1.17-8.76-2.85-13.32-3.67-12.75-2.28-27.11,2.95-35.63,13.11,2.27,1.45,5.17,1.89,7.96,2.18,7.23.75,14.67.86,21.89-.8,6.94-1.6,13.71-4.95,18.53-10.17Z"/>
              <path class="cls-11" d="M105.65,146.13c-2.64.67-5.36.99-8.03,1.48-3.87.7-7.73,1.45-11.6,2.21-6.38,1.25-12.98,2.25-19.13,4.45-.9.32-.51,1.77.4,1.45,6.14-2.2,12.75-3.2,19.13-4.45,3.86-.76,7.72-1.5,11.6-2.21,2.67-.48,5.39-.81,8.03-1.48.93-.24.54-1.68-.4-1.45h0Z"/>
            </g>
            <g>
              <path class="cls-12" d="M52.36,110.11c.11-.26.22-.53.34-.79,3.22,3.11,6.85,5.84,9.79,9.2,8.2,9.39,10.11,23.67,4.59,35.5-2.44-1.17-4.24-3.35-5.83-5.5-4.15-5.58-7.79-11.64-9.66-18.36-1.8-6.46-1.85-13.61.77-20.05Z"/>
              <path class="cls-11" d="M55.61,119.49c.65,2.57,1.67,5.04,2.51,7.55,1.16,3.46,2.28,6.93,3.38,10.41,1.84,5.8,4.03,11.69,4.87,17.74.13.95,1.58.55,1.45-.4-.84-6.05-3.03-11.94-4.87-17.74-1.08-3.4-2.17-6.8-3.3-10.18-.86-2.59-1.92-5.13-2.59-7.78-.24-.94-1.68-.54-1.45.4h0Z"/>
            </g>
            <g>
              <path class="cls-12" d="M37.68,133.67c.11-.26.22-.53.34-.79,3.22,3.11,6.85,5.84,9.79,9.2,8.21,9.39,10.11,23.67,4.59,35.5-2.44-1.17-4.24-3.35-5.83-5.5-4.15-5.58-7.79-11.64-9.66-18.36-1.8-6.46-1.85-13.61.77-20.05Z"/>
              <path class="cls-11" d="M40.93,143.05c.65,2.57,1.67,5.04,2.51,7.55,1.16,3.46,2.28,6.93,3.38,10.41,1.84,5.8,4.03,11.69,4.87,17.74.13.95,1.58.55,1.45-.4-.84-6.05-3.03-11.94-4.87-17.74-1.08-3.4-2.17-6.8-3.3-10.18-.86-2.59-1.92-5.13-2.59-7.78-.24-.94-1.68-.54-1.45.4h0Z"/>
            </g>
            <g>
              <path class="cls-12" d="M23.25,154.33c.11-.26.22-.53.34-.79,3.22,3.11,6.85,5.84,9.79,9.2,8.21,9.39,10.11,23.67,4.59,35.5-2.44-1.17-4.24-3.35-5.83-5.5-4.15-5.58-7.79-11.64-9.66-18.36-1.8-6.46-1.85-13.61.77-20.05Z"/>
              <path class="cls-11" d="M26.51,163.71c.65,2.57,1.67,5.04,2.51,7.55,1.16,3.46,2.28,6.93,3.38,10.41,1.84,5.8,4.03,11.69,4.87,17.74.13.95,1.58.55,1.45-.4-.84-6.05-3.03-11.94-4.87-17.74-1.08-3.4-2.17-6.8-3.3-10.18-.86-2.59-1.92-5.13-2.59-7.78-.24-.94-1.68-.54-1.45.4h0Z"/>
            </g>
            <g>
              <path class="cls-12" d="M103.5,178.97c.23-.18.46-.36.69-.54-4.1-1.98-7.93-4.44-12.2-6.09-11.92-4.6-26.88-2.03-37.15,6.5,1.91,1.85,4.64,2.82,7.29,3.62,6.87,2.07,14.06,3.54,21.4,3.22,7.05-.32,14.27-2.41,19.97-6.71Z"/>
              <path class="cls-11" d="M93.05,177.38c-2.85.19-5.73,0-8.59,0-3.91,0-7.81.03-11.72.08-6.33.08-12.81-.1-19.08.94-.95.16-.55,1.6.4,1.45,6.29-1.05,12.83-.82,19.18-.89,3.82-.05,7.65-.08,11.47-.07,2.78,0,5.57.19,8.34,0,.96-.06.97-1.57,0-1.5h0Z"/>
            </g>
            <g>
              <path class="cls-12" d="M86.95,206.13c.26-.14.51-.28.76-.43-3.69-2.59-7.04-5.62-10.95-7.91-10.91-6.38-25.97-6.08-37.39.88,1.57,2.14,4.09,3.51,6.55,4.71,6.38,3.1,13.18,5.65,20.41,6.43,6.94.75,14.35-.25,20.62-3.68Z"/>
              <path class="cls-11" d="M76.87,202.96c-2.75-.23-5.47-.85-8.2-1.27-3.82-.6-7.65-1.15-11.48-1.69-6.2-.88-12.53-2.06-18.82-1.96-.96.01-.97,1.51,0,1.5,6.48-.1,13.01,1.14,19.4,2.05,3.75.53,7.49,1.08,11.23,1.67,2.62.41,5.23.99,7.87,1.21.96.08.96-1.42,0-1.5h0Z"/>
            </g>
          </g>
          <g>
            <g>
              <g>
                <path class="cls-1" d="M145.56,176.61c.43-.93.83-1.87,1.15-2.85,1.53.04,2.3,1.85,2.53,3.36s.44,3.31,1.8,4.01c1.02.53,2.27.19,3.4.4,1.49.28,2.71,1.62,2.84,3.13.09,1.08-.32,2.13-.53,3.2-.21,1.06-.16,2.31.65,3.04,1.3,1.17,3.51.19,5.06,1.01,1.33.7,1.67,2.45,1.63,3.95-.04,1.66-.36,3.32-.95,4.88-.52.48-2.8,1.48-3.5,1.6-1.8.29-3.64.57-5.43.2-1.78-.37-3.52-1.53-4.03-3.28-.38-1.3-.06-2.77-.68-3.98-.85-1.67-3.41-2.07-4.94-3.17-2.72-1.94-2.68-5.93-1.74-9.13.65-2.22,1.78-4.26,2.76-6.36Z"/>
                <g class="cls-10">
                  <path class="cls-4" d="M162.75,200.69c-.65-2.14-1.59-3.78-3.85-4.44-1.15-.33-2.83-.15-3.68-1.11-.8-.91-.98-2.37-1.35-3.48-.29-.87-.65-1.73-1.26-2.43-.71-.82-1.68-1.13-2.57-1.7-2.61-1.69-2.24-5.14-1.9-7.8.07-.57-.83-.57-.9,0-.31,2.39-.58,5.03.85,7.15.6.89,1.41,1.4,2.34,1.89,1.26.66,1.98,1.52,2.46,2.85.64,1.77.85,4.29,2.94,4.97,1.16.37,2.4.29,3.53.8,1.52.68,2.05,2.06,2.51,3.55.17.55,1.04.32.87-.24h0Z"/>
                </g>
              </g>
              <g>
                <path class="cls-1" d="M195.11,207.13c.93-.42,1.88-.82,2.86-1.13-.02-1.53-1.82-2.32-3.33-2.56-1.51-.24-3.3-.47-4-1.83-.52-1.02-.17-2.27-.37-3.4-.26-1.49-1.6-2.72-3.1-2.87-1.08-.1-2.13.3-3.2.5s-2.31.13-3.03-.68c-1.16-1.31-.15-3.51-.96-5.06-.69-1.33-2.43-1.69-3.93-1.67-1.66.03-3.32.33-4.89.9-.49.52-1.51,2.79-1.63,3.49-.3,1.8-.61,3.64-.25,5.43s1.5,3.53,3.24,4.06c1.29.39,2.77.09,3.97.71,1.67.86,1.66,3.04,2.73,4.58,1.92,2.73,6.29,3.13,9.5,2.22,2.23-.63,4.28-1.74,6.39-2.7Z"/>
                <path class="cls-4" d="M170.78,188.35c.5-1.37,1.38-2.67,2.1-3.93,1.11-1.94,2.23-3.87,3.32-5.83.94-1.68,1.89-3.38,2.64-5.15.25-.58,1-2.04.17-2.5-.19-.11-.52-.07-.62.16-5.5,12.69-12.73,24.49-20.03,36.21-2.87,4.62-5.79,9.22-8.34,14.02-3.06,5.76-5.65,11.86-7.78,18.03-2.67,7.74-4.42,15.81-4.57,24.02-.01.58.89.58.9,0,.25-14.25,5.33-28.31,11.83-40.86,5.31-10.24,12.02-19.73,17.82-29.69,4.02-6.89,7.76-13.95,10.94-21.27l-.62.16c-.16-.09-.22.56-.31.81-.25.69-.57,1.35-.9,2-.88,1.77-1.85,3.5-2.83,5.22s-1.99,3.46-2.97,5.2c-.58,1.02-1.23,2.06-1.63,3.17-.2.55.67.78.87.24h0Z"/>
                <g class="cls-10">
                  <path class="cls-4" d="M192.01,204.52c-1.81.22-3.74.47-5.5-.18-.97-.36-1.76-.96-2.31-1.84-.41-.66-.65-1.4-1.14-2.01-.85-1.07-2.15-1.56-3.42-1.97-.69-.22-1.41-.4-2.08-.7-1.17-.51-1.47-1.26-1.66-2.46-.25-1.55-1.53-2.9-2.47-4.1s-1.82-2.27-2.77-3.36c-.38-.44-1.02.2-.64.64,1,1.15,1.98,2.34,2.92,3.55.64.82,1.31,1.67,1.8,2.59s.28,2.11,1.03,2.99c.88,1.03,2.4,1.32,3.63,1.71.76.24,1.54.5,2.21.97.88.62,1.22,1.54,1.73,2.44,1.77,3.14,5.57,3,8.67,2.62.57-.07.57-.97,0-.9h0Z"/>
                </g>
              </g>
              <g>
                <path class="cls-1" d="M180.11,224.22c.58-.85,1.18-1.67,1.86-2.44-.81-1.29-2.76-1.04-4.17-.47-1.41.58-3.07,1.3-4.37.5-.98-.6-1.32-1.85-2.07-2.72-.99-1.14-2.78-1.5-4.14-.85-.98.47-1.67,1.36-2.48,2.08-.81.72-1.91,1.31-2.95.99-1.67-.52-1.95-2.92-3.44-3.84-1.28-.78-2.95-.19-4.23.61-1.41.88-2.67,2-3.72,3.3-.15.69.15,3.17.41,3.83.67,1.69,1.37,3.43,2.59,4.77,1.23,1.35,2.73,2.25,4.49,1.8,1.31-.33,2.81-1.36,4.16-1.44,1.87-.12,3.32,1.55,5.04,2.3,3.05,1.35,6.67-.38,8.95-2.82,1.58-1.69,2.76-3.7,4.07-5.61Z"/>
                <g class="cls-10">
                  <path class="cls-4" d="M150.87,222.56c1.65-.4,3.19-.58,4.58.55.87.7,1.4,1.7,2.23,2.43,1.7,1.49,4.03.29,5.93-.02,1.78-.3,2.78.33,4.28,1.14.91.49,1.9.68,2.93.59,2.27-.2,4.1-1.6,5.84-2.96.46-.36-.19-.99-.64-.64-2.12,1.66-4.91,3.68-7.68,2.23-.94-.5-1.72-1.14-2.8-1.32-1.02-.17-2.06.05-3.05.28-1.4.33-3.06,1.02-4.3-.05-.75-.65-1.23-1.57-2-2.23-1.69-1.45-3.51-1.36-5.57-.86-.56.14-.32,1,.24.87h0Z"/>
                </g>
              </g>
            </g>
            <g>
              <path class="cls-9" d="M177.55,142.83c.58,2.73.51,5.59-.2,8.29-.49,1.87-1.29,3.65-2.08,5.42-1.46,3.25-2.91,6.51-4.37,9.76-1.01,2.26-2.05,4.63-1.93,7.11.08,1.67.68,3.29,1.53,4.73,2.62,4.44,7.64,7.28,12.79,7.58,5.15.3,10.32-1.83,14.03-5.42,3.04-2.95,5.35-6.96,9.3-8.48.73-.28,1.52-.47,2.29-.33,0,0,.48-4.73-4.62-6.09,0,0,11.34-1.32,7.95-8.54,0,0,5.28-4.25,1.38-8.09-3.91-3.84-9.51-5.21-9.36-4.86.15.35.77-5.21-.26-7.45-1.03-2.24-5.82,1.11-9.03-2.13-3.21-3.24-4.82.82-6.03,3.4,0,0-4.61-2.75-9.13-1.73-4.52,1.02-2.24,6.85-2.24,6.85Z"/>
              <g class="cls-13">
                <g class="cls-10">
                  <path class="cls-4" d="M204.75,144.22c.88,2.2,1.75,4.39,2.63,6.59.39.97,1.01,2.14.61,3.19-.36.95-1.34,1.54-2.23,1.91-1.94.82-4.1.92-6.18.85-2.22-.07-4.43-.3-6.63-.59-.57-.08-.57.82,0,.9,2.46.33,4.96.59,7.45.61,2.2.02,4.57-.22,6.52-1.33.76-.43,1.47-1.04,1.84-1.85.45-.97.24-2-.12-2.96-.95-2.54-2.01-5.04-3.01-7.55-.21-.53-1.08-.3-.87.24h0Z"/>
                  <path class="cls-4" d="M189.95,138c-4.66,1.69-7.79,6.14-7.55,11.14.07,1.48.26,2.83-.15,4.3s-1.21,2.82-2.19,3.97-2.25,2.22-3.54,3.14c-.71.51-2.01.98-2.34,1.84-.05.13,0,.35.12.44l.12.1c.2.16.43.17.64,0l.1-.08c.44-.37-.2-1.01-.64-.64l-.1.08h.64c.53.42,2.53-1.4,3.03-1.79.99-.78,1.93-1.63,2.74-2.61,1.43-1.73,2.47-3.83,2.61-6.09.08-1.23-.19-2.45-.14-3.68.06-1.48.45-2.95,1.13-4.27,1.21-2.34,3.29-4.09,5.76-4.99.54-.2.31-1.07-.24-.87h0Z"/>
                  <path class="cls-4" d="M207.75,153.98c-1.11,3.38-3.85,5.69-6.21,8.21-2.17,2.32-4.21,4.78-5.53,7.69-.24.52.54.98.78.45,1.41-3.09,3.63-5.65,5.95-8.09s4.8-4.72,5.88-8.02c.18-.55-.69-.79-.87-.24h0Z"/>
                  <path class="cls-4" d="M213.78,157.85c-.38-.58-.75-1.17-1.13-1.74-.35-.52-.72-1.01-1.22-1.4-.9-.7-2.13-1.56-3.29-.93-.51.28-.06,1.05.45.78.39-.21.85-.06,1.21.14.45.24.9.54,1.27.88s.67.78.95,1.21c.33.51.66,1.01.99,1.52s1.09.03.78-.45h0Z"/>
                  <path class="cls-4" d="M199.51,163.96c-2.02-.52-3.78-2.99-5.04-4.56-1.37-1.72-2.57-3.58-3.57-5.54s-1.85-4.06-2.43-6.2c-.34-1.25-.59-2.53-.65-3.82-.04-.94-.22-2.96.55-3.64.43-.38-.2-1.02-.64-.64-.74.65-.75,2.03-.8,2.96-.08,1.29.07,2.6.32,3.86.51,2.56,1.46,5.06,2.61,7.39s2.44,4.33,3.99,6.26c1.39,1.73,3.18,4.21,5.43,4.79.56.14.8-.72.24-.87h0Z"/>
                  <path class="cls-4" d="M205.06,143.93c-2.66-1.72-5.55-3.08-8.59-4-1.48-.45-3.04-.88-4.6-.94s-3.07.51-4.57.98c-.55.17-.32,1.04.24.87,1.41-.45,2.82-1,4.33-.95s3.16.53,4.65,1c2.86.9,5.57,2.19,8.08,3.82.49.32.94-.46.45-.78h0Z"/>
                  <path class="cls-4" d="M199.41,156.56c.75-2.52-.44-4.94-1.79-7.02-1.54-2.37-2.84-4.68-3.48-7.47-.05-.24-.33-.38-.55-.31-1.68.48-3.22,1.34-4.48,2.55-.53.51-2.73,2.66-1.2,3.2.55.19.78-.68.24-.87.29.1.99-1.06,1.21-1.3.4-.43.84-.83,1.32-1.18.95-.7,2.02-1.21,3.16-1.54l-.55-.31c.57,2.47,1.62,4.71,3.01,6.83s3.05,4.52,2.26,7.18c-.16.56.7.79.87.24h0Z"/>
                  <path class="cls-4" d="M205.47,146.41c.04.9-.37,1.7-.84,2.44-.42.65-.92,1.24-1.47,1.78-1.13,1.08-2.5,1.89-4,2.36-.55.17-.32,1.04.24.87,1.68-.52,3.22-1.43,4.47-2.66s2.58-2.96,2.5-4.78c-.02-.58-.92-.58-.9,0h0Z"/>
                  <path class="cls-4" d="M198.24,140.57c-1.55-.22-3.12.26-4.26,1.34-.42.4.22,1.03.64.64.89-.84,2.17-1.28,3.39-1.11.24.03.48-.06.55-.31.06-.21-.07-.52-.31-.55h0Z"/>
                  <path class="cls-4" d="M197.86,150.04l-.02.02c-.14.18-.2.46,0,.64.5.45,1.04-.14,1.28-.58.28-.53.35-1.12.38-1.71s.07-1.17.4-1.69c.31-.49.78-.85,1.26-1.16.26-.17.32-.62,0-.78-1.27-.61-2.65-1.26-4.11-1.11-.62.06-1.23.24-1.75.6-.42.3-1.19,1.02-.48,1.47.49.31.94-.47.45-.78l-.04-.03.21.27c-.04.16-.02.18.06.07.04-.04.09-.09.13-.13.06-.06.13-.1.2-.15.17-.11.36-.21.56-.27.43-.14.87-.19,1.32-.16,1.06.06,2.05.55,2.99,1v-.78c-.86.56-1.67,1.29-1.95,2.31-.15.54-.13,1.11-.18,1.66-.02.25-.06.5-.15.73-.04.11-.19.48-.31.51h.24l.12.08v.64l.02-.02c.15-.19.18-.45,0-.64-.16-.16-.49-.19-.64,0h0Z"/>
                  <path class="cls-4" d="M200.71,145.48v.02c.11-.14.22-.29.33-.43h-.03c.08,0,.16,0,.24,0h-.02c.1.17.21.36.31.54v-.02c-.1.1-.21.21-.31.31h.03c-.08-.01-.16-.01-.24-.01.34.05.55.42.7.69.22.39.39.82.56,1.24.37.94.59,1.95.23,2.92-.09.23.1.49.31.55.25.07.47-.09.55-.31.47-1.24.13-2.57-.36-3.74-.21-.5-.41-1.03-.73-1.47-.25-.34-.8-.91-1.28-.74-.14.05-.29.16-.31.31v.02c-.04.26.06.45.31.55.1.04.19.02.29,0,.2-.03.32-.25.33-.43v-.02c.05-.58-.85-.57-.9,0h0Z"/>
                  <path class="cls-4" d="M201.06,145.47c.41-.03.74-.27,1.12-.4.34-.11.69-.18,1.05-.19.74-.02,1.45.16,2.09.54.5.3.95-.48.45-.78-.72-.43-1.56-.66-2.4-.66-.41,0-.83.05-1.23.16-.19.05-.37.12-.55.19-.16.07-.37.22-.55.24-.24.02-.45.19-.45.45,0,.23.21.47.45.45h0Z"/>
                  <path class="cls-4" d="M207.31,166.89c-1.85-.02-3.35,1.04-4.81,2.07-1.56,1.1-3.04,2.3-4.43,3.59-1.47,1.37-2.77,2.88-4.11,4.36s-2.93,2.96-4.99,3.23c-4.54.6-7.13-4.21-8.93-7.54-.92-1.69-1.91-3.31-3.08-4.83-1-1.3-2.09-2.93-3.74-3.41l-.24.87c.41.1.47.11.86-.04.53-.21.3-1.08-.24-.87l-.39.04c-.56-.14-.8.71-.24.87,1.1.32,1.83,1.32,2.54,2.17s1.38,1.75,1.99,2.68c1.12,1.69,1.99,3.52,3.02,5.27,1.68,2.85,4.33,5.83,7.94,5.75s5.98-3.49,8.28-5.94c1.37-1.46,2.86-2.83,4.43-4.08,1.68-1.33,3.91-3.32,6.16-3.3.58,0,.58-.89,0-.9h0Z"/>
                  <path class="cls-4" d="M199.25,164.04c-2.82.38-5.92.53-8.23-1.43-1.91-1.62-2.92-4.13-3.1-6.59-.1-1.32-.02-2.65-.14-3.97-.12-1.24-.35-2.46-.58-3.68-.47-2.47-1.52-6.38.62-8.37.43-.4-.21-1.03-.64-.64-2.07,1.92-1.55,5.2-1.13,7.69.32,1.89.77,3.75.89,5.67.09,1.52-.02,3.03.23,4.54.42,2.47,1.68,4.89,3.73,6.39,2.51,1.84,5.66,1.66,8.59,1.26.57-.08.33-.94-.24-.87h0Z"/>
                  <path class="cls-4" d="M208.88,154.03c1.87,3.25-.99,6.6-3.51,8.4-1.4,1-2.89,1.88-4.27,2.91s-2.79,2.28-4.05,3.58c-.4.42.23,1.05.64.64,1.46-1.51,3.05-2.89,4.77-4.09,1.56-1.09,3.23-2.04,4.69-3.28,2.41-2.05,4.27-5.56,2.52-8.62-.29-.5-1.07-.05-.78.45h0Z"/>
                  <path class="cls-4" d="M208.31,165.62c-1.97-.41-4.04-.81-5.99-.1-1.81.66-3.46,1.97-4.9,3.23s-2.67,2.9-4.11,4.25c-1.84,1.72-3.92,1.87-6.06.5-3.54-2.27-5.63-6.15-8.83-8.81-1.41-1.17-3-2.12-4.79-2.55-2.34-.56-4.82-.51-7.19-.88-.57-.09-.81.78-.24.87,2.37.37,4.86.32,7.19.88,2.18.52,4,1.85,5.59,3.4,2.8,2.73,4.96,6.44,8.53,8.28s5.92-.38,8.17-2.91c1.49-1.68,3.16-3.18,5.05-4.4,2.4-1.54,4.64-1.45,7.35-.89.57.12.81-.75.24-.87h0Z"/>
                </g>
              </g>
            </g>
          </g>
          <g>
            <g>
              <g>
                <path class="cls-2" d="M59.18,63.68c.41-.83.84-1.64,1.35-2.41-.89-1.05-2.59-.58-3.78.11-1.19.69-2.57,1.55-3.83,1-.95-.42-1.41-1.48-2.19-2.16-1.03-.89-2.67-.99-3.8-.23-.81.54-1.32,1.42-1.95,2.17-.63.75-1.54,1.41-2.5,1.26-1.56-.25-2.11-2.36-3.55-2.98-1.24-.53-2.66.21-3.69,1.08-1.15.97-2.13,2.12-2.89,3.41-.04.64.53,2.8.85,3.36.81,1.42,1.65,2.88,2.91,3.93,1.26,1.05,3.06,1.61,4.58.99,1.13-.46,1.98-1.52,3.17-1.77,1.65-.35,3.38,1.23,5.01,1.69,2.89.81,5.68-1.45,7.4-3.92,1.19-1.71,1.99-3.65,2.92-5.52Z"/>
                <g class="cls-10">
                  <path class="cls-4" d="M32.88,65.97c1.34-.53,2.66-.93,4.01-.21.93.49,1.53,1.36,2.39,1.93,1.78,1.21,3.76-.24,5.51-.77,1.31-.4,2.27-.13,3.49.38.88.37,1.74.51,2.69.35,2.13-.34,3.71-1.92,5.14-3.41.4-.42-.23-1.05-.64-.64-1.6,1.67-3.68,3.77-6.23,3.1-.93-.24-1.69-.82-2.66-.91s-1.89.19-2.78.53c-1.09.41-2.57,1.35-3.75.79-.85-.4-1.46-1.32-2.24-1.85-1.69-1.15-3.35-.88-5.16-.16-.53.21-.3,1.08.24.87h0Z"/>
                </g>
              </g>
              <g>
                <path class="cls-2" d="M9.85,46.07c-.23-.89-.48-1.78-.82-2.64,1.09-.84,2.66-.03,3.67.9,1.02.92,2.19,2.05,3.54,1.77,1.01-.21,1.69-1.16,2.59-1.66,1.19-.66,2.81-.41,3.76.56.68.7.99,1.67,1.45,2.53.46.86,1.21,1.7,2.18,1.75,1.58.08,2.55-1.87,4.1-2.18,1.33-.26,2.56.75,3.39,1.82.92,1.18,1.64,2.52,2.12,3.94-.09.63-1.11,2.63-1.53,3.11-1.09,1.22-2.22,2.47-3.67,3.23s-3.33.94-4.68.01c-1.01-.69-1.62-1.89-2.74-2.39-1.55-.68-3.07.55-4.76.66-3,.19-5.74-2.66-6.91-5.42-.81-1.92-1.19-3.98-1.71-6.01Z"/>
                <path class="cls-4" d="M37.45,53.04c1.44-2.37,2.22-5.31,3.24-7.87.66-1.65,1.31-3.3,2.06-4.91.28-.6.56-1.2.9-1.76.1-.17.26-.34.34-.51.1-.22.26-.1.07-.18l-.27-.66c-5.89,11.15-10.14,23.03-14.32,34.9-1.65,4.68-3.25,9.4-5.26,13.94-2.37,5.36-5.2,10.6-8.37,15.53-3.81,5.93-8.31,11.41-13.74,15.92-.45.37.19,1,.64.64,9.61-7.99,16.23-18.89,21.53-30.06,1.99-4.18,3.54-8.57,5.08-12.93,1.96-5.51,3.86-11.04,5.93-16.51,2.71-7.15,5.7-14.2,9.28-20.97.15-.28,0-.55-.27-.66-.77-.31-1.39,1.03-1.65,1.51-.83,1.53-1.48,3.16-2.13,4.77-.78,1.91-1.52,3.83-2.28,5.75-.48,1.2-.89,2.51-1.56,3.62-.3.5.48.95.78.45h0Z"/>
                <g class="cls-10">
                  <path class="cls-4" d="M12.72,47.25c1.39,2.23,3.26,4.92,6.25,4.75.77-.04,1.51-.35,2.28-.36.91-.01,1.72.42,2.47.88,1.13.71,2.31,1.84,3.73,1.84,1.02,0,1.68-.78,2.62-.96.89-.17,1.83-.17,2.73-.19,1.42-.03,2.84,0,4.27.05.58.02.58-.88,0-.9-1.21-.05-2.42-.07-3.63-.06-1.34,0-3.07-.14-4.32.45-.97.46-1.61.95-2.73.42-.62-.3-1.18-.73-1.75-1.11-.97-.65-2.01-1.26-3.21-1.31-.62-.02-1.21.15-1.82.26-1.01.19-1.92.05-2.83-.45-1.49-.83-2.41-2.35-3.28-3.76-.31-.49-1.08-.04-.78.45h0Z"/>
                </g>
              </g>
              <g>
                <path class="cls-2" d="M6.3,66.23c.27-.88.51-1.77.67-2.68,1.36-.16,2.29,1.35,2.68,2.67s.81,2.89,2.11,3.35c.97.35,2.04-.12,3.08-.07,1.36.06,2.62,1.1,2.93,2.43.22.95-.01,1.94-.07,2.92-.05.98.15,2.08.96,2.63,1.31.88,3.15-.28,4.63.26,1.27.46,1.8,1.97,1.95,3.31.17,1.49.1,3.01-.23,4.47-.4.49-2.31,1.68-2.92,1.87-1.57.48-3.18.97-4.81.87-1.64-.1-3.11-.65-3.79-2.14-.5-1.11-.63-2.73-1.33-3.73-.97-1.39-2.96-1.46-4.46-2.24-2.67-1.39-3.49-4.9-3.06-7.87.3-2.06,1.05-4.02,1.65-6.02Z"/>
                <g class="cls-10">
                  <path class="cls-2" d="M24.29,85.67c-.42-.9-.86-1.83-1.64-2.44-.93-.73-2.19-.87-3.38-.86-.62,0-1.26.04-1.82-.22-.58-.28-.97-.84-1.27-1.4-.81-1.51-1.3-3.37-2.79-4.23-.67-.39-1.45-.52-2.14-.87-1.16-.6-1.91-1.79-2.27-3.04-.36-1.25-.38-2.57-.39-3.87"/>
                </g>
              </g>
            </g>
            <g>
              <path class="cls-9" d="M64.9,22.19c-2.24,1.13-4.22,2.79-5.71,4.81-1.04,1.4-1.84,2.96-2.63,4.51-1.46,2.85-2.93,5.71-4.39,8.56-1.02,1.99-2.1,4.05-3.9,5.36-1.22.89-2.69,1.37-4.19,1.59-4.6.66-9.41-1.26-12.52-4.71-3.11-3.45-4.53-8.28-4.09-12.91.36-3.8,1.88-7.67.72-11.3-.21-.67-.53-1.33-1.05-1.79,0,0,3.06-3,6.88-.18,0,0-5.46-8.71,1.52-10.39,0,0,0-6.1,4.9-5.52,4.9.58,9.01,3.75,8.69,3.84-.33.09,3.23-3.47,5.38-4.01,2.15-.54,2.49,4.71,6.58,5.14,4.09.43,2.14,3.85,1.01,6.14,0,0,4.53,1.68,6.36,5.44,1.83,3.75-3.55,5.43-3.55,5.43Z"/>
              <g class="cls-7">
                <g class="cls-10">
                  <path class="cls-4" d="M48.31,3.07c-2.35.72-4.74,1.37-7.07,2.16-1.77.6-2.68,1.87-2.45,3.77s1.36,3.75,2.56,5.28c1.47,1.86,3.15,3.56,4.86,5.19.42.4,1.06-.24.64-.64-1.46-1.4-2.88-2.84-4.2-4.38-1.21-1.41-2.34-2.99-2.82-4.81-.23-.85-.33-1.86.2-2.63s1.62-.97,2.46-1.22c2.02-.62,4.04-1.23,6.06-1.85.55-.17.32-1.04-.24-.87h0Z"/>
                  <path class="cls-4" d="M60.49,11.05c.83,2.47.71,5.15-.53,7.47-.53.99-1.24,1.89-2.09,2.62-.8.69-1.75,1.17-2.55,1.87-1.45,1.26-2.36,3.06-2.81,4.91-.27,1.12-.38,2.28-.39,3.43,0,.69.02,1.39.07,2.08.03.36.3,1.38.13,1.68l.51-.21-.14-.03.33.43v-.11c.02-.58-.88-.58-.9,0v.11c0,.19.14.39.33.43l.14.03c.2.05.4-.03.51-.21.43-.73,0-2.01-.05-2.83-.07-1.47-.04-2.96.29-4.39.27-1.2.73-2.37,1.44-3.38.81-1.17,1.95-1.83,3.07-2.66,3.57-2.66,4.92-7.31,3.52-11.5-.18-.55-1.05-.31-.87.24h0Z"/>
                  <path class="cls-4" d="M39.34,6.8c-1.69,2.6-1.89,5.6-2.29,8.59s-.95,5.99-2.31,8.71c-.26.52.52.97.78.45,1.31-2.61,1.9-5.44,2.32-8.31.44-3.09.54-6.29,2.29-8.98.32-.49-.46-.94-.78-.45h0Z"/>
                  <path class="cls-4" d="M34,6.06c.5-.05,1.01-.1,1.51-.15s1.01-.12,1.51-.04c.45.07.93.22,1.36.4.37.15.69.38.77.8.11.57.97.33.87-.24-.21-1.13-1.49-1.52-2.45-1.76-1.16-.29-2.4-.02-3.57.09-.24.02-.45.19-.45.45,0,.22.21.47.45.45h0Z"/>
                  <path class="cls-4" d="M37.22,19.39c1.63,1.22,4.35,1.1,6.27,1.11,2.53.01,5.07-.29,7.53-.9,2.26-.56,4.53-1.34,6.56-2.5,1.27-.72,3.84-2.28,3.92-3.93.03-.58-.87-.58-.9,0-.04.79-1.63,1.91-2.2,2.33-.77.56-1.6,1.03-2.46,1.44-1.84.87-3.8,1.5-5.78,1.94s-4.14.7-6.24.72c-1.88.02-4.68.19-6.25-.98-.46-.35-.91.43-.45.78h0Z"/>
                  <path class="cls-4" d="M48.37,4.31c2.59.86,5.05,2.06,7.31,3.59,1.07.72,2.15,1.5,3.03,2.45.97,1.04,1.39,2.37,1.89,3.67.21.53,1.08.3.87-.24-.5-1.28-.92-2.6-1.79-3.68s-2.05-1.93-3.19-2.72c-2.42-1.69-5.09-3-7.89-3.93-.55-.18-.79.69-.24.87h0Z"/>
                  <path class="cls-4" d="M43.66,15.03c1.36-1.97,3.95-2.18,6.12-2.39,2.35-.22,4.56-.74,6.69-1.77l-.66-.27c.41.98.67,2,.71,3.07.02.49,0,.98-.05,1.47-.03.25-.18,1.65-.46,1.71l.35.05-.11-.06c-.51-.28-.96.5-.45.78,1.26.68,1.51-1.89,1.59-2.59.17-1.59-.09-3.2-.7-4.67-.12-.28-.37-.41-.66-.27-1.19.57-2.44,1.01-3.73,1.29s-2.63.34-3.95.5c-2.09.25-4.2.88-5.45,2.69-.33.48.45.93.78.45h0Z"/>
                  <path class="cls-4" d="M46.17,3.9c-1.28.95-1.77,2.66-1.97,4.17-.23,1.67-.03,3.38.59,4.96.21.53,1.08.3.87-.24-.54-1.37-.75-2.83-.6-4.3.12-1.26.49-3,1.58-3.81.46-.34.01-1.12-.45-.78h0Z"/>
                  <path class="cls-4" d="M54.27,7.04c.84.79,1.26,1.91,1.16,3.06-.02.24.22.45.45.45.26,0,.43-.21.45-.45.11-1.36-.43-2.76-1.43-3.69-.18-.17-.46-.18-.64,0s-.18.47,0,.64h0Z"/>
                  <path class="cls-4" d="M47.56,11.82v.03c.18-.1.36-.21.55-.31h.04c.05.07.11.12.16.17l-.02-.04.06.23c-.03-.92,1.09-1.46,1.59-2.1.6-.77.69-1.77.6-2.72l-.68.39c.82.39,1.67.79,2.32,1.44.29.28.53.62.68.99.08.19.14.39.16.6.02.15.06.44-.04.57l.16-.16-.05.03.35-.05h-.06c-.56-.16-.8.71-.24.85.75.19.83-.78.77-1.28-.07-.6-.3-1.17-.66-1.66-.74-1.01-1.86-1.58-2.96-2.11-.28-.13-.71.02-.68.39.05.51.06,1.02-.08,1.52-.15.53-.52.88-.92,1.24s-.78.71-1,1.2c-.18.38-.4,1.26.23,1.37.23.04.5-.06.55-.31v-.03c.13-.56-.74-.81-.86-.24h0Z"/>
                  <path class="cls-4" d="M49.42,6.79h-.01c-.15.15-.17.39-.07.56.05.08.11.15.19.19.17.09.41.08.55-.07h.01c.1-.13.17-.3.12-.45-.17-.51-.9-.61-1.36-.57-.55.05-1.1.21-1.62.37-1.05.33-2.08.86-2.66,1.84-.29.5.48.95.78.45.42-.71,1.16-1.11,1.91-1.36.41-.14.84-.26,1.27-.35.25-.06.74-.15.92.02l-.12-.2v.03c.05-.15.09-.29.12-.44h-.01c.18,0,.36-.03.55-.06h-.02c.05.04.11.1.16.15v-.02c-.04.18-.06.36-.08.55h.01c.42-.41-.21-1.05-.64-.65h0Z"/>
                  <path class="cls-4" d="M50.5,6.69c-.06-.08-.06-.1-.08-.21-.02-.09-.04-.19-.06-.28-.05-.19-.12-.38-.2-.56-.15-.36-.36-.68-.6-.98-.48-.6-1.13-1.05-1.86-1.32-.23-.08-.49.09-.55.31-.07.25.09.47.31.55.04.02.09.03.13.05-.06-.02.02,0,.04.02.08.04.15.07.23.11.15.08.29.17.43.27.12.09-.06-.05.05.04.03.02.06.05.09.07.06.06.13.11.19.17s.12.12.17.18c.03.03.05.06.08.09,0,0,.09.11.04.05.1.13.2.28.28.42.04.07.07.13.11.2.02.04.04.08.06.13.04.08,0-.03.03.06.05.15.11.3.14.46.05.21.09.42.21.6.14.2.39.29.62.16.2-.11.3-.42.16-.62h0Z"/>
                  <path class="cls-4" d="M30.6,15.41c1.22,1.47,1.08,3.93,1.11,5.73.03,2.09-.1,4.18-.43,6.24-.45,2.92-1.42,6.34.68,8.88,1.89,2.28,5.1,2.61,7.85,2.28,1.91-.23,3.79-.7,5.71-.89,1.04-.1,2.09-.15,3.14-.13s2.21-.05,3.09.58c.41.29.95-.39.55-.71l-.2-.27c-.17-.55-1.04-.32-.87.24.11.36.13.43.44.66l.55-.71c-1.24-.87-3.01-.72-4.45-.7-1.84.03-3.64.28-5.44.61-3.22.58-7.99,1.36-10.02-2.05-1.06-1.77-.77-3.94-.44-5.87.31-1.76.58-3.52.69-5.31.12-1.9.1-3.82-.09-5.72-.13-1.29-.37-2.49-1.21-3.51-.37-.45-1,.19-.64.64h0Z"/>
                  <path class="cls-4" d="M37.02,19.28c1.25,2.08,2.74,4.22,5.11,5.1s5.28.38,7.5-.93c1.25-.74,2.31-1.76,3.52-2.56s2.59-1.47,3.89-2.19c2.08-1.14,4.71-2.66,4.92-5.29.05-.58-.85-.57-.9,0-.2,2.53-3.42,3.95-5.37,4.99-1.01.54-2.04,1.07-3,1.7s-1.89,1.46-2.87,2.14c-1.98,1.37-4.55,2.11-6.92,1.43s-3.88-2.83-5.11-4.87c-.3-.5-1.08-.04-.78.45h0Z"/>
                  <path class="cls-4" d="M39.21,5.66c-2.83.45-4.33,3.31-4.57,5.93-.17,1.85.14,3.7.27,5.55.15,2,.08,4.01-.17,6-.07.57.83.57.9,0,.21-1.66.29-3.33.23-5s-.33-3.28-.37-4.92c-.08-2.71.82-6.19,3.96-6.69.57-.09.33-.96-.24-.87h0Z"/>
                  <path class="cls-4" d="M31.01,14.07c1.52,1.25,2.97,2.54,3.4,4.55.46,2.17.33,4.58-.02,6.75-.49,3.09-.92,6.25,2.45,7.78s7.37.9,10.98,1.4c2.08.29,4.06.93,5.66,2.33,1.47,1.29,2.73,2.82,4.18,4.14.43.39,1.07-.24.64-.64-2.63-2.4-4.65-5.31-8.23-6.3-3.87-1.08-8-.24-11.85-1.38-2.24-.66-3.5-2.12-3.35-4.52.13-1.96.65-3.85.69-5.83.04-1.68,0-3.59-.65-5.17s-1.98-2.7-3.26-3.75c-.44-.37-1.08.27-.64.64h0Z"/>
                </g>
              </g>
            </g>
          </g>
          <g>
            <path class="cls-5" d="M64.61,96.28c-1.18,2.76-2.46,5.5-3.09,8.44-.6,2.81-.55,5.85.74,8.41,1.29,2.56,4,4.51,6.87,4.35,1.1-.06,2.16-.42,3.17-.84,1.69-.7,3.35-1.65,4.37-3.16,1.57-2.32,1.27-5.53-.03-8.02-1.3-2.49-3.43-4.42-5.52-6.29-1.19-1.07-2.39-2.14-3.58-3.21,2.8.81,5.61,1.7,8.51,1.96,2.86.25,5.87-.17,8.26-1.77,2.38-1.6,3.99-4.53,3.47-7.35-.2-1.08-.68-2.09-1.22-3.04-.9-1.59-2.05-3.12-3.68-3.95-2.5-1.27-5.64-.57-7.95,1.02-2.31,1.6-3.96,3.95-5.56,6.25-.74,1.07-1.49,2.14-2.23,3.21.57-2.8,1.21-5.61,1.23-8.46.02-2.87-.65-5.84-2.43-8.09-1.79-2.25-4.84-3.61-7.61-2.87-1.06.28-2.03.84-2.93,1.46-1.51,1.03-2.95,2.3-3.64,3.98-1.07,2.6-.12,5.67,1.66,7.84,1.78,2.17,4.26,3.63,6.68,5.04,1.12.65,2.23,1.3,3.35,1.95-2.84-.52-5.7-1.12-8.59-1.09-2.87.04-5.83.76-8.04,2.59-2.21,1.83-3.51,4.91-2.72,7.66.3,1.06.88,2.01,1.52,2.91,1.06,1.49,2.35,2.9,4.05,3.56,2.61,1.02,5.67,0,7.81-1.81,2.14-1.82,3.55-4.32,4.91-6.78.79-1.41,1.58-2.83,2.36-4.24-.05.11-.09.22-.14.33Z"/>
            <g class="cls-10">
              <path class="cls-4" d="M48.29,98.23c.53-.71,1.76-.84,2.56-1.06,1.03-.29,2.06-.57,3.1-.81,2.07-.49,4.18-.85,6.31-.91.58-.02.58-.92,0-.9-2.37.06-4.71.48-7.01,1.05-1.15.28-2.3.6-3.44.92-.88.25-1.73.49-2.29,1.25-.34.47.44.92.78.45h0Z"/>
              <path class="cls-4" d="M50.6,102.07c.97-1.19,2.36-1.85,3.73-2.46,1.59-.71,3.21-1.34,4.84-1.98.53-.21.3-1.08-.24-.87-1.7.66-3.39,1.32-5.05,2.07-1.44.65-2.9,1.36-3.91,2.61-.36.44.27,1.09.64.64h0Z"/>
              <path class="cls-4" d="M54.04,105.03c2.8-2.37,5.49-4.88,8.06-7.51.4-.41-.23-1.05-.64-.64-2.57,2.63-5.25,5.13-8.06,7.51-.44.37.2,1.01.64.64h0Z"/>
              <path class="cls-4" d="M65.45,110.87c-.3-.21-.27-1.13-.3-1.41-.05-.46-.1-.91-.13-1.37-.07-.95-.1-1.91-.09-2.87.02-1.95.23-3.9.6-5.82.11-.57-.76-.81-.87-.24-.43,2.22-.65,4.48-.63,6.74.01,1.15.08,2.3.21,3.44.09.79.06,1.79.76,2.3.47.34.92-.44.45-.78h0Z"/>
              <path class="cls-4" d="M69.57,109.52c-.58-2.79-1.28-5.56-2.12-8.29-.17-.55-1.04-.32-.87.24.83,2.73,1.54,5.49,2.12,8.29.12.57.98.33.87-.24h0Z"/>
              <path class="cls-4" d="M74.13,108.58c-1.11-3.59-3.14-6.86-5.87-9.44-.42-.4-1.06.24-.64.64,2.62,2.48,4.57,5.59,5.64,9.04.17.55,1.04.32.87-.24h0Z"/>
              <path class="cls-4" d="M65.6,94.69s0,0,.01,0l-.12-.02s.02,0,.02,0l-.11-.05s.02,0,.02.01l-.09-.07s.01.01.02.02l-.07-.09s.01.02.02.03l-.05-.11s0,.03.01.04l-.02-.12s0,.03,0,.05l.02-.12s0,.03-.01.04l.05-.11s0,.02-.02.03l.07-.09s-.01.01-.02.02l.09-.07s-.01,0-.02.01l.11-.05s-.02,0-.03,0l.12-.02s-.02,0-.03,0l.12.02s-.02,0-.03,0l.11.05s-.02,0-.02-.01l.09.07s-.02-.02-.02-.02l.07.09s-.02-.02-.02-.04l.05.11s-.01-.03-.01-.05l.02.12s0-.03,0-.05l-.02.12s0-.02,0-.04l-.05.11s0-.02.01-.02l-.07.09s.01-.01.02-.02l-.09.07s.02-.01.02-.01l-.11.05s0,0,0,0c.06-.01.11-.04.15-.08.05-.03.09-.07.12-.13.03-.05.05-.11.05-.17.01-.06.01-.12,0-.18l-.05-.11c-.04-.07-.09-.12-.16-.16l-.11-.05c-.08-.02-.16-.02-.24,0-.04.01-.08.03-.11.05,0,0,0,0,0,0s0,0,0,0c0,0,0,0,0,0-.03.02-.07.05-.09.07,0,0,0,0-.01.01,0,0,0,0,0,0-.02.02-.05.07-.07.09,0,0,0,0,0,0,0,0,0,0,0,0-.02.04-.03.08-.05.11,0,0,0,.01,0,.02,0,0,0,0,0,0,0,.04-.01.08-.02.13,0,0,0,.01,0,.02s0,.01,0,.02c0,.04.01.09.02.13,0,0,0,0,0,.01,0,0,0,.01,0,.02,0,0,0,0,0,0,.01.04.03.08.05.12,0,0,0,.01,0,.02,0,0,0,0,0,0,.02.03.05.07.08.1.03.04.08.07.12.1,0,0,.01,0,.02,0,0,0,0,0,0,0,.03.01.08.04.11.05,0,0,0,0,0,0,.04.01.09.02.14.02,0,0,.01,0,.02,0,.02,0,.05,0,.06,0,.01,0,.04,0,.06,0,0,0,0,0,0,0,0,0,0,0,0,0,0,0,0,0,0,0,.03-.01.08-.03.11-.05,0,0,.01,0,.02,0,.04-.02.07-.05.1-.08,0,0,0,0,0,0,.02-.03.05-.07.07-.1,0,0,0-.01.01-.02,0,0,0,0,0,0,.02-.04.03-.08.05-.11,0,0,0-.01,0-.02.01-.05.02-.1.02-.16,0,0,0-.01,0-.02,0,0,0,0,0,0,0-.04,0-.09-.02-.13,0-.05-.04-.11-.06-.15-.02-.05-.06-.09-.09-.13-.02-.02-.04-.03-.06-.05s-.04-.03-.06-.05c0,0,0,0,0,0-.03-.01-.08-.04-.11-.05,0,0,0,0-.01,0s0,0-.01,0c-.03,0-.09-.01-.12-.02,0,0,0,0,0,0-.06,0-.12.01-.17.04-.06.02-.1.05-.14.09-.04.04-.07.09-.09.14-.03.05-.04.11-.04.17l.02.12c.02.08.06.14.12.2l.09.07c.07.04.15.06.23.06h0Z"/>
              <path class="cls-4" d="M69.57,94.8c3.49.21,6.98.06,10.43-.44.57-.08.33-.95-.24-.87-3.37.49-6.79.62-10.2.41-.58-.04-.58.86,0,.9h0Z"/>
              <path class="cls-4" d="M70.78,93.08c3.07-.7,6.11-1.54,9.11-2.51.55-.18.31-1.05-.24-.87-3,.97-6.04,1.81-9.11,2.51-.56.13-.33,1,.24.87h0Z"/>
              <path class="cls-4" d="M71.68,90.8c1.82-2.14,4.05-3.89,6.56-5.16.52-.26.06-1.04-.45-.78-2.57,1.29-4.88,3.1-6.74,5.3-.37.44.26,1.08.64.64h0Z"/>
              <path class="cls-4" d="M64.36,91c-2.74-1.72-5.26-3.76-7.52-6.07-.41-.42-1.04.22-.64.64,2.31,2.37,4.9,4.45,7.7,6.21.49.31.94-.47.45-.78h0Z"/>
              <path class="cls-4" d="M63.65,87.73c-2.37-3.01-4.34-6.34-5.81-9.88-.22-.53-1.09-.3-.87.24,1.54,3.69,3.57,7.13,6.04,10.27.36.45.99-.19.64-.64h0Z"/>
              <path class="cls-4" d="M65.49,88.86c-.56-3.63-1.4-7.2-2.51-10.7-.17-.55-1.04-.32-.87.24,1.11,3.5,1.95,7.07,2.51,10.7.09.57.96.33.87-.24h0Z"/>
            </g>
          </g>
          <g>
            <path class="cls-14" d="M127.62,175.11c-1.18,2.76-2.46,5.5-3.09,8.44-.6,2.81-.55,5.85.74,8.41,1.29,2.56,4,4.51,6.87,4.35,1.1-.06,2.16-.42,3.17-.84,1.69-.7,3.35-1.65,4.37-3.16,1.57-2.32,1.27-5.53-.03-8.02-1.3-2.49-3.43-4.42-5.52-6.29-1.19-1.07-2.39-2.14-3.58-3.21,2.8.81,5.61,1.7,8.51,1.96,2.86.25,5.87-.17,8.26-1.77,2.38-1.6,3.99-4.53,3.47-7.35-.2-1.08-.68-2.09-1.22-3.04-.9-1.59-2.05-3.12-3.68-3.95-2.5-1.27-5.64-.57-7.95,1.02-2.31,1.6-3.96,3.95-5.56,6.25-.74,1.07-1.49,2.14-2.23,3.21.57-2.8,1.21-5.61,1.23-8.46.02-2.87-.65-5.84-2.43-8.09-1.79-2.25-4.84-3.61-7.61-2.87-1.06.28-2.03.84-2.93,1.46-1.51,1.03-2.95,2.3-3.64,3.98-1.07,2.6-.12,5.67,1.66,7.84,1.78,2.17,4.26,3.63,6.68,5.04,1.12.65,2.23,1.3,3.35,1.95-2.84-.52-5.7-1.12-8.59-1.09-2.87.04-5.83.76-8.04,2.59s-3.51,4.91-2.72,7.66c.3,1.06.88,2.01,1.52,2.91,1.06,1.49,2.35,2.9,4.05,3.56,2.62,1.02,5.67,0,7.81-1.81,2.14-1.82,3.55-4.32,4.91-6.78.79-1.41,1.58-2.83,2.36-4.24-.05.11-.09.22-.14.33Z"/>
            <g class="cls-10">
              <path class="cls-4" d="M111.31,177.07c.53-.71,1.76-.84,2.56-1.06,1.03-.29,2.06-.57,3.1-.81,2.07-.49,4.18-.85,6.31-.91.58-.02.58-.92,0-.9-2.37.06-4.71.48-7.01,1.05-1.15.28-2.3.6-3.44.92-.88.25-1.73.49-2.29,1.25-.34.47.44.92.78.45h0Z"/>
              <path class="cls-4" d="M113.62,180.9c.97-1.19,2.36-1.85,3.73-2.46,1.59-.71,3.21-1.34,4.84-1.98.53-.21.3-1.08-.24-.87-1.7.66-3.39,1.32-5.05,2.07-1.44.65-2.9,1.36-3.91,2.61-.36.44.27,1.09.64.64h0Z"/>
              <path class="cls-4" d="M117.05,183.86c2.8-2.37,5.49-4.88,8.06-7.51.4-.41-.23-1.05-.64-.64-2.57,2.63-5.25,5.13-8.06,7.51-.44.37.2,1.01.64.64h0Z"/>
              <path class="cls-4" d="M128.46,189.71c-.3-.21-.27-1.13-.3-1.41-.05-.46-.1-.91-.13-1.37-.07-.95-.1-1.91-.09-2.87.02-1.95.23-3.9.6-5.82.11-.57-.76-.81-.87-.24-.43,2.22-.65,4.48-.63,6.74.01,1.15.08,2.3.21,3.44.09.79.06,1.79.76,2.3.47.34.92-.44.45-.78h0Z"/>
              <path class="cls-4" d="M132.58,188.35c-.58-2.79-1.28-5.56-2.12-8.29-.17-.55-1.04-.32-.87.24.83,2.73,1.54,5.49,2.12,8.29.12.57.98.33.87-.24h0Z"/>
              <path class="cls-4" d="M137.15,187.42c-1.11-3.59-3.14-6.86-5.87-9.44-.42-.4-1.06.24-.64.64,2.62,2.48,4.57,5.59,5.64,9.04.17.55,1.04.32.87-.24h0Z"/>
              <path class="cls-4" d="M128.61,173.52s0,0,.01,0l-.12-.02s.02,0,.03,0l-.11-.05s.01,0,.02.01l-.09-.07s.01.01.02.02l-.07-.09s.01.02.02.03l-.05-.11s0,.03.01.04l-.02-.12s0,.03,0,.05l.02-.12s0,.03-.01.04l.05-.11s0,.02-.02.03l.07-.09s-.01.01-.02.02l.09-.07s-.01,0-.02.01l.11-.05s-.02,0-.03,0l.12-.02s-.02,0-.03,0l.12.02s-.02,0-.03,0l.11.05s-.02,0-.02-.01l.09.07s-.02-.02-.02-.02l.07.09s-.02-.02-.02-.04l.05.11s-.01-.03-.01-.05l.02.12s0-.03,0-.05l-.02.12s0-.02,0-.04l-.05.11s0-.02.01-.02l-.07.09s.01-.01.02-.02l-.09.07s.02-.01.02-.01l-.11.05s0,0,0,0c.06-.01.11-.04.15-.08.05-.03.09-.07.12-.13.03-.05.05-.11.05-.17.01-.06.01-.12,0-.18l-.05-.11c-.04-.07-.09-.12-.16-.16l-.11-.05c-.08-.02-.16-.02-.24,0-.04.01-.08.03-.11.05,0,0,0,0,0,0s0,0,0,0c0,0,0,0,0,0-.03.02-.07.05-.09.07,0,0,0,0-.01.01,0,0,0,0,0,0-.02.02-.05.07-.07.09,0,0,0,0,0,0,0,0,0,0,0,0-.02.04-.03.08-.05.11,0,0,0,.01,0,.02,0,0,0,0,0,0,0,.04-.01.08-.02.13,0,0,0,.01,0,.02s0,.01,0,.02c0,.04.01.09.02.13,0,0,0,0,0,.01,0,0,0,.01,0,.02,0,0,0,0,0,0,.01.04.03.08.05.12,0,0,0,.01,0,.02,0,0,0,0,0,0,.02.03.05.07.08.1.03.04.08.07.12.1,0,0,.01,0,.02,0,0,0,0,0,0,0,.03.01.08.04.11.05,0,0,0,0,0,0,.04.01.09.02.14.02,0,0,.01,0,.02,0,.02,0,.05,0,.06,0,.01,0,.04,0,.06,0,0,0,0,0,0,0,0,0,0,0,0,0,0,0,0,0,0,0,.03-.01.08-.03.11-.05,0,0,.01,0,.02,0,.04-.02.07-.05.1-.08,0,0,0,0,0,0,.02-.03.05-.07.07-.1,0,0,0-.01.01-.02,0,0,0,0,0,0,.02-.04.03-.08.05-.11,0,0,0-.01,0-.02.01-.05.02-.1.02-.16,0,0,0-.01,0-.02,0,0,0,0,0,0,0-.04,0-.09-.02-.13,0-.05-.04-.11-.06-.15-.02-.05-.06-.09-.09-.13-.02-.02-.04-.03-.06-.05-.02-.01-.04-.03-.06-.05-.02,0-.05-.02-.06-.02-.01,0-.04-.02-.06-.02,0,0,0,0-.01,0s0,0-.01,0c-.03,0-.09-.01-.12-.02,0,0,0,0,0,0-.06,0-.12.01-.17.04-.06.02-.1.05-.14.09-.04.04-.07.09-.09.14-.03.05-.04.11-.04.17l.02.12c.02.08.06.14.12.2l.09.07c.07.04.15.06.23.06h0Z"/>
              <path class="cls-4" d="M132.58,173.63c3.49.21,6.98.06,10.43-.44.57-.08.33-.95-.24-.87-3.37.49-6.79.62-10.2.41-.58-.04-.58.86,0,.9h0Z"/>
              <path class="cls-4" d="M133.79,171.91c3.07-.7,6.11-1.54,9.11-2.51.55-.18.31-1.05-.24-.87-3,.97-6.04,1.81-9.11,2.51-.56.13-.33,1,.24.87h0Z"/>
              <path class="cls-4" d="M134.7,169.64c1.82-2.14,4.05-3.89,6.56-5.16.52-.26.06-1.04-.45-.78-2.57,1.29-4.88,3.1-6.74,5.3-.37.44.26,1.08.64.64h0Z"/>
              <path class="cls-4" d="M127.38,169.83c-2.74-1.72-5.26-3.76-7.52-6.07-.41-.42-1.04.22-.64.64,2.31,2.37,4.9,4.45,7.7,6.21.49.31.94-.47.45-.78h0Z"/>
              <path class="cls-4" d="M126.66,166.57c-2.37-3.01-4.34-6.34-5.81-9.88-.22-.53-1.09-.3-.87.24,1.54,3.69,3.57,7.13,6.04,10.27.36.45.99-.19.64-.64h0Z"/>
              <path class="cls-4" d="M128.51,167.7c-.56-3.63-1.4-7.2-2.51-10.7-.17-.55-1.04-.32-.87.24,1.11,3.5,1.95,7.07,2.51,10.7.09.57.96.33.87-.24h0Z"/>
            </g>
          </g>
        </g>
      </g>
    </g>
  </g>
</svg>