<?xml version="1.0" encoding="UTF-8"?>
<svg id="Layer_2" data-name="Layer 2" xmlns="http://www.w3.org/2000/svg" viewBox="0 0 52.69 53.22">
  <defs>
    <style>
      .cls-1 {
        fill: #c54774;
      }

      .cls-2 {
        fill: #e0729a;
      }
    </style>
  </defs>
  <g id="OBJECTS">
    <g>
      <path class="cls-2" d="M27.99,28.04c1.91,2.9,3.95,5.77,5.27,8.99,1.26,3.08,1.84,6.56.89,9.75-.95,3.19-3.64,5.98-6.94,6.39-1.26.16-2.55-.03-3.79-.3-2.07-.45-4.16-1.19-5.64-2.71-2.27-2.33-2.59-6.05-1.62-9.15.97-3.11,3-5.75,5-8.32,1.14-1.47,2.28-2.94,3.42-4.4-3.03,1.5-6.05,3.1-9.31,3.99-3.21.87-6.74,1.01-9.79-.32C2.43,30.62,0,27.6,0,24.27c0-1.27.34-2.52.77-3.72.7-2,1.7-3.99,3.38-5.27,2.59-1.97,6.32-1.82,9.28-.48,2.96,1.34,5.34,3.69,7.64,5.99,1.07,1.07,2.14,2.13,3.21,3.2-1.23-3.07-2.54-6.15-3.14-9.4-.61-3.27-.47-6.8,1.11-9.73C23.81,1.94,27.01-.25,30.33.02c1.27.1,2.49.55,3.65,1.06,1.93.86,3.84,2.01,4.98,3.8,1.75,2.74,1.3,6.45-.27,9.29-1.58,2.85-4.11,5.02-6.58,7.13-1.14.97-2.28,1.95-3.42,2.92,3.14-1.19,6.27-2.46,9.58-3.01,3.28-.55,6.8-.34,9.7,1.29,2.9,1.63,5.02,4.87,4.69,8.18-.13,1.27-.59,2.48-1.13,3.63-.9,1.92-2.09,3.8-3.89,4.9-2.77,1.7-6.47,1.18-9.28-.45-2.82-1.63-4.94-4.2-7.01-6.72-1.19-1.45-2.38-2.9-3.57-4.36.07.11.15.23.22.34Z"/>
      <g>
        <path class="cls-1" d="M47.94,26.03c-.82-.77-1.86-.88-2.93-.99-1.39-.13-2.77-.26-4.16-.35-2.8-.18-5.59-.16-8.36.26-.95.15-.55,1.59.4,1.45,2.44-.37,4.92-.38,7.38-.24,1.2.07,2.4.17,3.59.28.91.08,2.3-.02,3.02.65s1.76-.4,1.06-1.06h0Z"/>
        <path class="cls-1" d="M46,30.8c-1.42-1.21-3.17-1.78-4.95-2.23-2.09-.53-4.21-.94-6.33-1.35-.94-.18-1.35,1.26-.4,1.45,1.98.38,3.95.77,5.91,1.25,1.64.4,3.39.83,4.7,1.95.73.62,1.8-.43,1.06-1.06h0Z"/>
        <path class="cls-1" d="M42.53,34.77c-3.69-2.13-7.27-4.43-10.74-6.9-.79-.56-1.54.74-.76,1.3,3.47,2.47,7.05,4.77,10.74,6.9.84.48,1.59-.81.76-1.3h0Z"/>
        <path class="cls-1" d="M30.92,45.79c.76-.78.5-2.04.43-3.03-.09-1.3-.25-2.6-.47-3.88-.44-2.57-1.14-5.08-2.09-7.51-.35-.89-1.8-.5-1.45.4.82,2.11,1.46,4.28,1.9,6.5.22,1.11.39,2.22.5,3.35.06.55.1,1.11.13,1.66.02.3.2,1.23-.02,1.46-.67.69.39,1.76,1.06,1.06h0Z"/>
        <path class="cls-1" d="M26.34,44.22c.08-3.31.32-6.61.7-9.89.05-.4-.38-.75-.75-.75-.44,0-.7.35-.75.75-.39,3.28-.62,6.58-.7,9.89-.02.97,1.48.97,1.5,0h0Z"/>
        <path class="cls-1" d="M20.93,44.1c.51-4.11,2.11-8.02,4.56-11.35.57-.78-.73-1.53-1.3-.76-2.62,3.56-4.23,7.73-4.76,12.11-.05.41.38.75.75.75.45,0,.7-.35.75-.75h0Z"/>
        <path class="cls-1" d="M26.24,25.19c-.06.02-.19.08-.2.08,0,0-.01,0-.02.01,0,0,0,0,0,0-.02.01-.14.1-.15.12,0,0,0,0,0,0-.05.05-.11.13-.13.17,0,0,0,.01-.01.02,0,0,0,0,0,0-.02.04-.06.14-.08.18,0,0,0,0,0,0,0,0,0,.01,0,.02,0,0,0,0,0,.01,0,.03-.01.08-.01.1,0,.03-.01.07-.01.11,0,.02,0,.03,0,.05,0,.06.02.15.03.2,0,0,0,0,0,0,0,0,0,0,0,.01,0,0,0,.02,0,.02,0,0,0,0,0,.01.02.06.05.13.08.19,0,0,0,.02.01.02.04.06.09.12.13.17,0,0,.01.01.02.02,0,0,0,0,0,0,.03.03.12.09.15.12,0,0,0,0,0,0,0,0,.01,0,.02.01-.02,0,.13.07.2.08,0,0,0,0,.01,0,.04,0,.16.02.2.03,0,0,0,0,0,0,0,0,.01,0,.02,0-.02,0,.16-.01.22-.03.03-.01.08-.03.1-.04s.07-.03.1-.04c.06-.03.18-.14.17-.13,0,0,.01,0,.02-.01.05-.05.09-.11.13-.17,0,0,0-.01.01-.02,0,0,0,0,0-.01.02-.05.06-.13.08-.18,0,0,0,0,0,0,.02-.04.02-.1.02-.14,0-.04.02-.1.01-.15,0-.04-.01-.08-.01-.11,0-.03,0-.07-.02-.11,0,0,0-.02,0-.02-.01-.03-.03-.07-.04-.1s-.03-.07-.04-.1c0,0,0-.01-.01-.02-.03-.04-.09-.12-.12-.15,0,0,0,0,0,0,0,0,0,0,0,0,0,0,0,0-.01,0-.03-.03-.12-.1-.15-.12,0,0,0,0,0,0,0,0,0,0-.01,0,0,0,0,0,0,0l-.18-.08s0,0,0,0c0,0-.02,0-.03,0-.1-.03-.2-.04-.3-.01-.1,0-.19.03-.28.09-.09.05-.16.11-.21.19-.07.07-.11.16-.13.26l-.03.2c0,.14.03.26.1.38l.12.15c.09.09.2.16.33.19.01,0,.02,0,.03,0l-.18-.08s.02,0,.02.01l-.15-.12s.02.01.02.02l-.12-.15s.01.02.02.03l-.08-.18s.01.03.01.05l-.03-.2s0,.04,0,.06l.03-.2s0,.04-.01.05l.08-.18s-.01.02-.02.04l.12-.15s-.01.02-.02.02l.15-.12s-.02.01-.03.02l.18-.08s-.02,0-.03,0l.2-.03s-.02,0-.03,0l.2.03s-.02,0-.03,0l.18.08s-.02,0-.03-.01l.15.12s-.02-.02-.02-.02l.12.15s-.02-.02-.02-.04l.08.18s-.01-.04-.02-.06l.03.2s0-.04,0-.06l-.03.2s0-.03.01-.04l-.08.18s.01-.02.02-.03l-.12.15s.01-.01.02-.02l-.15.12s.02-.01.03-.02l-.18.08s.01,0,.02,0c.1-.02.18-.07.26-.13.08-.05.15-.12.19-.21.05-.09.08-.18.09-.28.02-.1.02-.2-.01-.3l-.08-.18c-.07-.11-.16-.2-.27-.27l-.18-.08c-.13-.04-.27-.04-.4,0h0Z"/>
        <path class="cls-1" d="M21.73,26.14c-3.82.94-7.72,1.48-11.66,1.62-.96.03-.97,1.53,0,1.5,4.06-.15,8.11-.71,12.06-1.67.94-.23.54-1.68-.4-1.45h0Z"/>
        <path class="cls-1" d="M20.34,24.39c-3.58-.16-7.16-.47-10.71-.95-.4-.05-.8.1-.92.52-.1.35.12.87.52.92,3.69.5,7.39.84,11.11,1.01.97.04.96-1.46,0-1.5h0Z"/>
        <path class="cls-1" d="M19.62,22.3c-2.66-2.18-5.7-3.81-9-4.78-.93-.27-1.32,1.17-.4,1.45,3.04.9,5.89,2.39,8.34,4.4.31.26.75.31,1.06,0,.26-.26.31-.8,0-1.06h0Z"/>
        <path class="cls-1" d="M28.05,22.89c2.85-2.6,5.37-5.54,7.53-8.73.54-.8-.76-1.55-1.3-.76-2.09,3.09-4.54,5.91-7.3,8.43-.71.65.35,1.71,1.06,1.06h0Z"/>
        <path class="cls-1" d="M28.4,18.77c2.16-4.06,3.77-8.4,4.76-12.9.21-.94-1.24-1.34-1.45-.4-.97,4.37-2.51,8.59-4.61,12.54-.45.85.84,1.61,1.3.76h0Z"/>
        <path class="cls-1" d="M26.72,19.81c-.11-4.25.11-8.51.66-12.73.05-.41-.38-.75-.75-.75-.45,0-.7.35-.75.75-.54,4.22-.76,8.47-.66,12.73.02.96,1.52.97,1.5,0h0Z"/>
      </g>
    </g>
  </g>
</svg>